<svg width="42" height="36" viewBox="0 0 42 36" xmlns="http://www.w3.org/2000/svg">
    <g fill="#E4185A" fill-rule="evenodd">
        <path d="M4.56 33.705A2.303 2.303 0 0 1 2.266 36C1.006 36 0 34.967 0 33.705a2.27 2.27 0 0 1 2.266-2.264c1.26 0 2.294 1.029 2.294 2.264zM7.855 28.48c0 1.261-1.007 2.28-2.266 2.28a2.291 2.291 0 0 1-2.294-2.28c0-1.26 1.035-2.28 2.294-2.28 1.26 0 2.266 1.02 2.266 2.28zM11.286 23.241a2.291 2.291 0 0 1-2.296 2.28 2.266 2.266 0 0 1-2.265-2.28 2.266 2.266 0 0 1 2.265-2.28 2.29 2.29 0 0 1 2.296 2.28zM14.188 18c0 1.26-1.013 2.28-2.281 2.28A2.273 2.273 0 0 1 9.627 18c0-1.26 1.012-2.28 2.28-2.28a2.274 2.274 0 0 1 2.28 2.28zM17.286 12.76a2.29 2.29 0 0 1-2.294 2.28 2.266 2.266 0 0 1-2.266-2.28c0-1.26 1.004-2.28 2.266-2.28a2.29 2.29 0 0 1 2.294 2.28zM20.187 7.52c0 1.26-1.01 2.28-2.28 2.28a2.273 2.273 0 0 1-2.28-2.28c0-1.26 1.011-2.28 2.28-2.28 1.27 0 2.28 1.02 2.28 2.28zM23.175 2.28c0 1.26-1.034 2.28-2.294 2.28a2.285 2.285 0 0 1-2.266-2.28A2.284 2.284 0 0 1 20.881 0a2.29 2.29 0 0 1 2.294 2.28zM37.225 33.68c0 1.233 1.034 2.267 2.295 2.267a2.273 2.273 0 0 0 2.266-2.266 2.274 2.274 0 0 0-2.266-2.293 2.298 2.298 0 0 0-2.295 2.293zM33.93 28.427c0 1.26 1.006 2.28 2.266 2.28s2.294-1.02 2.294-2.28a2.29 2.29 0 0 0-2.294-2.28 2.266 2.266 0 0 0-2.266 2.28zM30.5 23.187c0 1.26 1.032 2.279 2.295 2.279a2.265 2.265 0 0 0 2.266-2.28 2.266 2.266 0 0 0-2.266-2.28 2.29 2.29 0 0 0-2.295 2.28zM27.599 17.947a2.29 2.29 0 0 0 2.294 2.28c1.26 0 2.266-1.02 2.266-2.28 0-1.261-1.007-2.28-2.266-2.28a2.29 2.29 0 0 0-2.294 2.28zM24.501 12.707a2.29 2.29 0 0 0 2.294 2.28 2.266 2.266 0 0 0 2.267-2.28 2.265 2.265 0 0 0-2.267-2.28 2.29 2.29 0 0 0-2.294 2.28zM21.6 7.466a2.29 2.29 0 0 0 2.295 2.279 2.264 2.264 0 0 0 2.265-2.279 2.265 2.265 0 0 0-2.265-2.28 2.29 2.29 0 0 0-2.296 2.28zM10.465 33.705C10.465 34.967 9.46 36 8.198 36a2.302 2.302 0 0 1-2.294-2.295c0-1.235 1.033-2.264 2.294-2.264a2.269 2.269 0 0 1 2.267 2.264zM13.784 28.48c0 1.261-1.035 2.28-2.267 2.28a2.289 2.289 0 0 1-2.293-2.28c0-1.26 1.031-2.28 2.293-2.28a2.285 2.285 0 0 1 2.267 2.28zM17.189 23.241a2.267 2.267 0 0 1-2.266 2.28 2.292 2.292 0 0 1-2.295-2.28 2.291 2.291 0 0 1 2.295-2.28 2.267 2.267 0 0 1 2.266 2.28zM20.092 18c0 1.26-1.004 2.28-2.266 2.28A2.29 2.29 0 0 1 15.532 18c0-1.26 1.032-2.28 2.294-2.28A2.265 2.265 0 0 1 20.092 18zM23.189 12.76c0 1.26-1.006 2.28-2.266 2.28a2.292 2.292 0 0 1-2.295-2.28c0-1.26 1.036-2.28 2.295-2.28 1.26 0 2.266 1.02 2.266 2.28zM31.283 33.579a2.282 2.282 0 0 0 2.293 2.273 2.258 2.258 0 0 0 2.267-2.273 2.27 2.27 0 0 0-2.267-2.286 2.293 2.293 0 0 0-2.293 2.286zM27.962 28.333a2.29 2.29 0 0 0 2.296 2.28 2.267 2.267 0 0 0 2.265-2.28 2.266 2.266 0 0 0-2.265-2.28 2.29 2.29 0 0 0-2.296 2.28zM24.558 23.092a2.29 2.29 0 0 0 2.295 2.28 2.266 2.266 0 0 0 2.265-2.28c0-1.26-1.005-2.279-2.265-2.279a2.29 2.29 0 0 0-2.295 2.28zM21.656 17.852a2.29 2.29 0 0 0 2.294 2.28 2.267 2.267 0 0 0 2.266-2.28c0-1.26-1.007-2.28-2.266-2.28a2.29 2.29 0 0 0-2.294 2.28z"/>
    </g>
</svg>
